# xmcd
#
# Track frame offsets:
#	150
#	16155
#	33104
#	52200
#	69360
#	84809
#	102814
#	120350
#	137649
#	153983
#	168391
#	186389
#	204452
#	218768
#	229952
#	257619
#
# Disc length: 3440 seconds
#
# Revision: 1
# Processed by: cddbd v1.5.1PL0 Copyright (c) Steve Scherf et al.
# Submitted via: audiograbber 1.83.01
#
DISCID=cd0d6e10
DTITLE=Guy Country - Askfp-21 Guy Country Volume 2
DYEAR=1900
DGENRE=karaoke
TTITLE0=Kenny Chesney - No Shoes, No Shirt, No Problems
TTITLE1=Diamond Rio - One More Day 
TTITLE2=Tim Mcgraw - Red Ragtop
TTITLE3=Keith Urban - Somebody Like You 
TTITLE4=Kennt Chesney - The Good Stuff
TTITLE5=Joe Nichols - The Impossible
TTITLE6=Books &dunn - The Long Goodbye
TTITLE7=Garry Allen - The One
TTITLE8=Rascal Flatts - These Days
TTITLE9=Andy Griggs - Tonight I Want To Be Your Man
TTITLE10=Tim Mcgraw - Unbroken
TTITLE11=Alan Jackson - Work In Progress
TTITLE12=Brad Paisley - Wrapped Around
TTITLE13=Toby Keith - You Ain`t Much Fun
TTITLE14=Aaron Lines - You Can`t Hide Beautiful
TTITLE15=None - Data Track
EXTD=
EXTT0=
EXTT1=
EXTT2=
EXTT3=
EXTT4=
EXTT5=
EXTT6=
EXTT7=
EXTT8=
EXTT9=
EXTT10=
EXTT11=
EXTT12=
EXTT13=
EXTT14=
EXTT15=
PLAYORDER=
